<svg width="72" height="72" viewBox="0 0 72 72" fill="none" xmlns="http://www.w3.org/2000/svg">
<path d="M65.3525 34.1304C65.3525 33.5757 65.4028 33.1723 65.0507 32.7184C64.4471 31.9116 63.7429 31.1552 63.0387 30.4493C61.9321 29.4407 60.4734 28.6339 59.1656 27.9784C56.2482 26.516 53.1296 25.5075 49.9607 24.8015C43.3211 23.3391 36.3797 23.087 29.5892 23.3895C26.8227 23.5408 24.0562 23.6921 21.34 24.1964C20.2837 24.3981 19.2274 24.5998 18.2214 24.9528C17.1148 25.3057 15.9579 25.7092 15.0525 26.4151C14.7507 26.6168 14.4992 26.869 14.2477 27.1211C14.0465 27.3732 13.8453 27.6758 13.6944 27.9784C13.5435 28.2305 13.3423 28.4826 13.2417 28.7852C13.1411 29.0373 13.0908 29.239 13.0908 29.4407C13.0908 29.6929 13.1914 29.8946 13.1914 30.0963C13.1914 30.1467 14.7507 30.298 14.9016 30.3484C15.5052 30.4493 16.1088 30.4997 16.7124 30.5501C18.9256 30.8022 21.1891 31.0039 23.4023 31.2057C28.0299 31.6091 32.7078 32.0629 37.3857 32.4663C41.8624 32.8697 46.2888 33.2227 50.7655 33.6766C55.2925 34.1304 59.7692 34.7355 64.3465 34.6347C64.598 34.6347 64.8998 34.6347 65.1513 34.6347C65.5034 34.6347 65.3525 34.4834 65.3525 34.1304ZM25 27.5002C24.2455 27.9541 24 28.0002 23.2514 28.6843C21.9939 29.9954 19.7807 29.2894 18.1208 29.1382C17.8693 29.1382 17.6178 29.0877 17.316 29.0373C17.0142 28.9869 16.5112 29.0877 16.5615 28.7852C16.5615 28.3818 16.6621 28.0792 16.813 27.6758C17.0142 27.222 17.819 27.0203 18.2717 26.8185C18.8753 26.5664 19.4789 26.3647 20.1328 26.2134C22.4969 25.5579 25.0119 25.1545 27.4766 25.2049C27.5772 25.2049 27.6778 25.2049 27.7784 25.2049C26.8227 25.8604 26 26.8987 25 27.5002Z" fill="#29813F"/>
<path d="M13.5964 10.1862C11.0311 10.0349 8.76765 7.56398 9.01915 4.99222C9.32095 2.21877 12.1377 0.252133 14.7533 0C13.7473 1.61365 12.0874 2.97516 11.5844 4.89137C11.0311 6.85801 12.5401 8.67336 13.5964 10.1862Z" fill="#29813F"/>
<path d="M16.3096 20.7162C17.6677 17.3881 19.9815 14.5642 21.3899 11.236C22.1444 9.4711 22.3959 7.70617 20.6857 6.49594C19.3779 5.53783 17.8186 5.03357 16.3599 4.47888C18.1707 3.72248 20.5348 3.67205 22.3456 4.47888C24.5085 5.43698 25.7157 7.65575 25.4139 9.97537C25.1121 12.5471 23.5528 14.8667 21.7923 16.7325C20.1827 18.3462 18.3216 19.7581 16.3096 20.7162Z" fill="#29813F"/>
<path d="M8.31296 33.6263C3.53447 33.3741 -1.49553 28.8862 0.415872 23.7931C2.02547 19.5068 7.25666 16.9351 11.4819 16.3804C9.11776 19.1539 5.64707 21.2213 3.93687 24.5495C2.12607 28.1802 5.99917 31.3571 8.31296 33.6263Z" fill="#29813F"/>
<path d="M45.8871 22.5828L36.3301 21.6247C35.7265 21.5743 35.2738 21.0196 35.3744 20.4145L35.7265 16.7838C35.7768 16.1786 36.3301 15.7248 36.9337 15.8257L46.4907 16.7838C47.0943 16.8342 47.547 17.3889 47.4464 17.994L47.0943 21.6247C47.044 22.2298 46.4907 22.6332 45.8871 22.5828Z" fill="#2B823F"/>
<path d="M71.9933 43.2066L71.8927 42.1477C71.7418 40.8366 70.5849 39.8785 69.2771 40.0297L63.392 40.6349C63.3417 39.7272 62.6375 38.9708 61.7321 38.9708H14.7519C13.8465 38.9708 13.092 39.7272 13.092 40.6853V41.593L7.55903 41.0383C6.25123 40.887 5.09433 41.8451 4.94343 43.1562L4.84283 44.2151C4.69193 45.5262 5.64763 46.686 6.95543 46.8373L13.092 47.4929V48.5014V49.8125V63.9823C13.092 68.4199 15.6573 72.0002 18.8262 72.0002H57.6578C60.8267 72.0002 63.392 68.4199 63.392 63.9823V49.8125V48.5014V46.4843L69.8304 45.8288C71.1382 45.7279 72.0939 44.5177 71.9933 43.2066ZM27.8802 68.1677H21.0897C21.0394 68.1677 20.9891 68.1677 20.9388 68.1677H20.8382C18.7759 68.1677 17.116 66.1003 17.116 63.5285V49.6108C17.116 49.4595 17.116 49.3586 17.116 49.2074V46.2322C17.116 45.5262 17.7196 44.9211 18.4238 44.9211H20.8382H20.9388H21.0897H25.9185H27.8802V68.1677Z" fill="#2B823F"/>
</svg>
