<svg width="217" height="57" viewBox="0 0 217 57" fill="none" xmlns="http://www.w3.org/2000/svg">
<path d="M197.458 44.5541C195.372 44.5541 193.52 44.2061 191.902 43.51C190.299 42.7998 189.029 41.7345 188.092 40.314C187.17 38.8793 186.708 37.0825 186.708 34.9234C186.708 33.1052 187.028 31.5711 187.666 30.3211C188.305 29.0711 189.185 28.0555 190.306 27.2742C191.427 26.493 192.718 25.9035 194.18 25.5058C195.642 25.0938 197.203 24.8168 198.863 24.6748C200.722 24.5043 202.22 24.3268 203.355 24.1421C204.49 23.9433 205.313 23.6663 205.824 23.3112C206.349 22.9418 206.612 22.4234 206.612 21.7558V21.6492C206.612 20.5555 206.236 19.7103 205.484 19.1137C204.731 18.5171 203.717 18.2188 202.44 18.2188C201.063 18.2188 199.956 18.5171 199.119 19.1137C198.281 19.7103 197.749 20.5342 197.522 21.5853L187.922 21.2444C188.206 19.2558 188.936 17.4802 190.114 15.9177C191.306 14.341 192.938 13.1052 195.01 12.2103C197.096 11.3012 199.601 10.8467 202.525 10.8467C204.611 10.8467 206.534 11.0953 208.294 11.5924C210.053 12.0754 211.586 12.7856 212.892 13.7231C214.197 14.6464 215.205 15.7828 215.914 17.1322C216.638 18.4816 217 20.0228 217 21.7558V44.0001H207.208V39.4404H206.952C206.371 40.5484 205.626 41.4859 204.717 42.2529C203.823 43.02 202.766 43.5953 201.546 43.9788C200.339 44.3623 198.977 44.5541 197.458 44.5541ZM200.673 37.7359C201.794 37.7359 202.801 37.5086 203.696 37.0541C204.604 36.5995 205.328 35.9745 205.867 35.1791C206.406 34.3694 206.676 33.4319 206.676 32.3666V29.2558C206.378 29.412 206.016 29.5541 205.59 29.6819C205.179 29.8097 204.724 29.9305 204.228 30.0441C203.731 30.1578 203.22 30.2572 202.695 30.3424C202.17 30.4276 201.666 30.5058 201.184 30.5768C200.204 30.733 199.367 30.9745 198.672 31.3012C197.991 31.6279 197.465 32.0541 197.096 32.5796C196.742 33.091 196.564 33.7018 196.564 34.412C196.564 35.4916 196.947 36.3154 197.714 36.8836C198.494 37.4518 199.481 37.7359 200.673 37.7359Z" fill="#2B823F"/>
<path d="M164.732 44.5541C162.646 44.5541 160.794 44.2061 159.176 43.51C157.572 42.7998 156.302 41.7345 155.365 40.314C154.443 38.8793 153.982 37.0825 153.982 34.9234C153.982 33.1052 154.301 31.5711 154.94 30.3211C155.578 29.0711 156.458 28.0555 157.579 27.2742C158.7 26.493 159.992 25.9035 161.453 25.5058C162.915 25.0938 164.476 24.8168 166.137 24.6748C167.996 24.5043 169.493 24.3268 170.628 24.1421C171.764 23.9433 172.587 23.6663 173.098 23.3112C173.623 22.9418 173.885 22.4234 173.885 21.7558V21.6492C173.885 20.5555 173.509 19.7103 172.757 19.1137C172.005 18.5171 170.99 18.2188 169.713 18.2188C168.336 18.2188 167.229 18.5171 166.392 19.1137C165.555 19.7103 165.023 20.5342 164.796 21.5853L155.195 21.2444C155.479 19.2558 156.21 17.4802 157.388 15.9177C158.58 14.341 160.212 13.1052 162.284 12.2103C164.37 11.3012 166.875 10.8467 169.798 10.8467C171.884 10.8467 173.807 11.0953 175.567 11.5924C177.327 12.0754 178.859 12.7856 180.165 13.7231C181.471 14.6464 182.478 15.7828 183.188 17.1322C183.911 18.4816 184.273 20.0228 184.273 21.7558V44.0001H174.481V39.4404H174.226C173.644 40.5484 172.899 41.4859 171.991 42.2529C171.097 43.02 170.039 43.5953 168.819 43.9788C167.613 44.3623 166.25 44.5541 164.732 44.5541ZM167.946 37.7359C169.067 37.7359 170.075 37.5086 170.969 37.0541C171.877 36.5995 172.601 35.9745 173.14 35.1791C173.679 34.3694 173.949 33.4319 173.949 32.3666V29.2558C173.651 29.412 173.289 29.5541 172.863 29.6819C172.452 29.8097 171.998 29.9305 171.501 30.0441C171.004 30.1578 170.493 30.2572 169.968 30.3424C169.443 30.4276 168.939 30.5058 168.457 30.5768C167.478 30.733 166.64 30.9745 165.945 31.3012C165.264 31.6279 164.739 32.0541 164.37 32.5796C164.015 33.091 163.838 33.7018 163.838 34.412C163.838 35.4916 164.221 36.3154 164.987 36.8836C165.768 37.4518 166.754 37.7359 167.946 37.7359Z" fill="#2B823F"/>
<path d="M131.511 44.4689C129.098 44.4689 126.905 43.8439 124.933 42.5939C122.96 41.3439 121.385 39.4689 120.207 36.9689C119.029 34.4689 118.44 31.3652 118.44 27.6578C118.44 23.8084 119.05 20.6408 120.271 18.155C121.491 15.6692 123.088 13.8297 125.061 12.6365C127.047 11.4433 129.183 10.8467 131.468 10.8467C133.185 10.8467 134.654 11.145 135.874 11.7416C137.095 12.324 138.103 13.0768 138.897 14.0001C139.692 14.9234 140.295 15.8822 140.707 16.8766H140.92V0.36377H151.329V44.0001H141.026V38.6947H140.707C140.267 39.7033 139.642 40.6479 138.833 41.5285C138.024 42.4092 137.01 43.1195 135.789 43.6592C134.583 44.199 133.157 44.4689 131.511 44.4689ZM135.129 36.351C136.392 36.351 137.471 35.9959 138.365 35.2856C139.259 34.5612 139.947 33.5456 140.43 32.2388C140.912 30.932 141.154 29.3979 141.154 27.6365C141.154 25.8467 140.912 24.3055 140.43 23.0129C139.962 21.7203 139.273 20.726 138.365 20.03C137.471 19.3339 136.392 18.9859 135.129 18.9859C133.838 18.9859 132.745 19.341 131.851 20.0513C130.957 20.7615 130.276 21.7629 129.808 23.0555C129.353 24.3481 129.126 25.8751 129.126 27.6365C129.126 29.3979 129.361 30.932 129.829 32.2388C130.297 33.5456 130.971 34.5612 131.851 35.2856C132.745 35.9959 133.838 36.351 135.129 36.351Z" fill="#2B823F"/>
<path d="M84.563 44.618C81.1429 44.618 78.191 43.9433 75.7075 42.5938C73.2382 41.2302 71.3366 39.2913 70.0026 36.7771C68.6828 34.2487 68.0229 31.2444 68.0229 27.7643C68.0229 24.3836 68.6899 21.4291 70.0239 18.9007C71.3578 16.358 73.2382 14.3836 75.665 12.9774C78.0917 11.5569 80.9513 10.8467 84.2437 10.8467C86.5711 10.8467 88.6998 11.2089 90.6298 11.9333C92.5599 12.6578 94.2274 13.7302 95.6323 15.1507C97.0373 16.5711 98.13 18.3254 98.9106 20.4134C99.6911 22.4873 100.081 24.8666 100.081 27.5512V30.1507H71.663V24.0995H90.3957C90.3815 22.9916 90.119 22.0043 89.6081 21.1379C89.0972 20.2714 88.3947 19.5967 87.5006 19.1137C86.6208 18.6166 85.6061 18.368 84.4566 18.368C83.2929 18.368 82.2498 18.6308 81.3273 19.1563C80.4049 19.6677 79.674 20.3708 79.1348 21.2657C78.5955 22.1464 78.3117 23.1478 78.2833 24.27V30.4276C78.2833 31.7629 78.5458 32.9347 79.0709 33.9433C79.596 34.9376 80.341 35.7117 81.3061 36.2657C82.2711 36.8197 83.4206 37.0967 84.7546 37.0967C85.677 37.0967 86.5143 36.9688 87.2665 36.7132C88.0186 36.4575 88.6643 36.0811 89.2036 35.5839C89.7429 35.0867 90.1473 34.4759 90.417 33.7515L99.9749 34.0285C99.5776 36.1734 98.7048 38.0413 97.3566 39.6322C96.0226 41.2089 94.27 42.4376 92.0987 43.3183C89.9274 44.1847 87.4155 44.618 84.563 44.618Z" fill="#2B823F"/>
<path d="M50.8421 44.618C47.422 44.618 44.4702 43.9433 41.9867 42.5938C39.5174 41.2302 37.6157 39.2913 36.2817 36.7771C34.9619 34.2487 34.302 31.2444 34.302 27.7643C34.302 24.3836 34.969 21.4291 36.303 18.9007C37.637 16.358 39.5174 14.3836 41.9441 12.9774C44.3708 11.5569 47.2304 10.8467 50.5228 10.8467C52.8502 10.8467 54.979 11.2089 56.909 11.9333C58.839 12.6578 60.5065 13.7302 61.9115 15.1507C63.3164 16.5711 64.4092 18.3254 65.1897 20.4134C65.9702 22.4873 66.3605 24.8666 66.3605 27.5512V30.1507H37.9421V24.0995H56.6748C56.6606 22.9916 56.3981 22.0043 55.8872 21.1379C55.3763 20.2714 54.6738 19.5967 53.7798 19.1137C52.8999 18.6166 51.8852 18.368 50.7357 18.368C49.572 18.368 48.5289 18.6308 47.6065 19.1563C46.684 19.6677 45.9532 20.3708 45.4139 21.2657C44.8746 22.1464 44.5908 23.1478 44.5624 24.27V30.4276C44.5624 31.7629 44.825 32.9347 45.3501 33.9433C45.8751 34.9376 46.6202 35.7117 47.5852 36.2657C48.5502 36.8197 49.6997 37.0967 51.0337 37.0967C51.9562 37.0967 52.7935 36.9688 53.5456 36.7132C54.2978 36.4575 54.9435 36.0811 55.4828 35.5839C56.022 35.0867 56.4265 34.4759 56.6961 33.7515L66.2541 34.0285C65.8567 36.1734 64.9839 38.0413 63.6357 39.6322C62.3018 41.2089 60.5491 42.4376 58.3778 43.3183C56.2065 44.1847 53.6946 44.618 50.8421 44.618Z" fill="#2B823F"/>
<path d="M9.66483 56.2729C8.41599 56.2729 7.23809 56.1735 6.13116 55.9747C5.02423 55.79 4.0734 55.5414 3.27868 55.2289L5.57769 47.665C6.59948 48.0059 7.52192 48.2048 8.34503 48.2616C9.18232 48.3184 9.89899 48.1835 10.495 47.8568C11.1053 47.5443 11.5736 46.9832 11.9 46.1735L12.3044 45.1934L0.681641 11.2729H11.5807L17.605 34.6252H17.9456L24.055 11.2729H35.0179L22.6926 47.1323C22.0966 48.9221 21.2522 50.4988 20.1594 51.8624C19.0809 53.2403 17.683 54.3198 15.9658 55.1011C14.2629 55.8823 12.1625 56.2729 9.66483 56.2729Z" fill="#2B823F"/>
<path d="M115.893 23.4999C117.701 26.8152 117.242 33.3437 113.894 34.998C110.259 36.744 103.903 34.998 101.3 31.0052C104.902 30.998 107.159 30.3389 109.899 29.4999C112.895 27.998 114.859 25.975 115.893 23.4999Z" fill="#29813F"/>
</svg>
